<?xml version="1.0" standalone="no"?><!DOCTYPE svg PUBLIC "-//W3C//DTD SVG 1.1//EN" "http://www.w3.org/Graphics/SVG/1.1/DTD/svg11.dtd"><svg t="1758438945498" class="icon" viewBox="0 0 1024 1024" version="1.1" xmlns="http://www.w3.org/2000/svg" p-id="29770" xmlns:xlink="http://www.w3.org/1999/xlink" width="200" height="200"><path d="M867.234909 117.620364c-21.783273-21.829818-79.36-3.956364-155.834182 42.914909a401.314909 401.314909 0 0 0-198.981818-52.736c-222.999273 0-403.781818 180.968727-403.781818 404.200727 0 72.285091 19.269818 139.915636 52.456727 198.609455-47.709091 77.591273-66.094545 136.005818-44.078545 157.975272 46.08 46.08 251.298909-84.666182 458.472727-292.026182 207.127273-207.36 337.780364-412.858182 291.746909-458.938181zM320.093091 649.728a78.661818 78.661818 0 1 1 0.093091-157.230545 78.661818 78.661818 0 0 1-0.093091 157.230545z m137.541818-235.985455a98.304 98.304 0 0 1-98.210909-98.304 98.304 98.304 0 1 1 98.210909 98.350546z m398.568727-113.75709c-50.874182 86.853818-141.870545 200.704-256.279272 315.252363-105.518545 105.611636-210.571636 191.301818-294.306909 243.898182a401.408 401.408 0 0 0 206.801454 57.064727c223.045818 0 403.781818-180.968727 403.781818-404.154182a402.478545 402.478545 0 0 0-60.043636-212.06109z m-202.053818 487.470545a58.973091 58.973091 0 1 1 0.093091-117.946182 58.973091 58.973091 0 0 1-0.093091 117.946182z" fill="#FFC565" p-id="29771"></path></svg>