<?xml version="1.0" standalone="no"?><!DOCTYPE svg PUBLIC "-//W3C//DTD SVG 1.1//EN" "http://www.w3.org/Graphics/SVG/1.1/DTD/svg11.dtd"><svg t="1758440438075" class="icon" viewBox="0 0 1024 1024" version="1.1" xmlns="http://www.w3.org/2000/svg" p-id="50154" xmlns:xlink="http://www.w3.org/1999/xlink" width="200" height="200"><path d="M692.8 335.7H346.5c1.6 2.5 2.8 4.4 4 6.2C394.3 406.7 438 471.4 481.8 536c5.6 8.2 8.1 16.8 8.1 26.7-0.1 81-0.1 162-0.1 243 0 17.9-10.5 30.9-27 33.9-17.9 3.2-35.9-11.1-36.8-29.3-0.1-2.3-0.1-4.7-0.1-7 0-76.7 0-153.3-0.1-230 0-3.4-1.2-7.3-3-10.1C368.9 483.4 315 403.6 261 323.9c-7.2-10.6-9.6-21.5-4.2-33.4 5.1-11.2 13.9-17.6 26.3-18.7 2.3-0.2 4.7-0.3 7-0.3 152.2 0 304.3 0 456.5-0.1 12.8 0 23.8 3.4 30.9 14.7 7.4 11.7 7.1 23.6-0.2 35.3-14.3 23-28.7 46.1-43.1 69.1-35.8 57.5-71.7 115-107.5 172.6-1.5 2.4-2.5 5.5-2.5 8.3-0.1 112.5-0.1 225-0.1 337.5v5.4c4.7-1.4 8.9-2.5 13.1-3.8C747.3 875.2 830.5 807 886.3 705.8c26.2-47.4 41.9-98.5 47.8-152.4 10.5-95.8-8.7-185.4-58.5-267.8-45.5-75.2-108.8-131-189-167.3C623.5 89.7 557.2 77 488.2 82c-142.6 10.4-253.4 76-332.3 194.9C120.6 330 99.7 389 92.3 452.3c-13.1 111.9 12.9 214.4 80.2 304.9 66.3 89.2 155 144 264.4 164.9 25.4 4.8 51.2 6.7 77 7 15.8 0.2 28.8 12.3 30.9 28 2 14.7-7.4 29.6-21.9 34.1-3.9 1.2-8.2 1.7-12.3 1.6-112.6-1.3-213.7-36-301.7-106.6C115.6 811.5 56.5 715 34.1 597.3c-23.2-122-3.6-237.5 61-343.6C167.8 134.2 273.4 57.8 410.6 28.2c124.8-27 243.6-7.8 353 58.4 119.9 72.6 197 178.2 226.1 315.6 31.2 147.3 0.4 282.6-91.6 402-73.6 95.5-171 154.8-289.2 179.2-6 1.2-12.8-0.4-19.1-1.6-4-0.8-7.7-3-11.4-4.9-12.2-6.4-18.2-16.7-18.2-30.4V865c0-100.7 0-201.3-0.1-302 0-9.5 2.3-17.9 7.4-25.9 40.8-65.2 81.5-130.5 122.2-195.8 0.9-1.7 1.8-3.3 3.1-5.6z" p-id="50155" fill="#00EED1"></path></svg>