<svg width="20" height="20" viewBox="0 0 20 20" fill="none" xmlns="http://www.w3.org/2000/svg">
<path d="M12.7981 9.12224H7.20184V9.85271H12.7981V9.12224Z" fill="#2C2C2C" stroke="#2C2C2C"/>
<path d="M9.99994 7.82737C9.777 7.82737 9.59625 7.66384 9.59625 7.46213V5.43687C9.59625 5.23517 9.777 5.07164 9.99994 5.07164C10.2229 5.07164 10.4036 5.23517 10.4036 5.43687V7.46213C10.4036 7.66384 10.2229 7.82737 9.99994 7.82737Z" fill="#2C2C2C" stroke="#2C2C2C"/>
<path d="M7.78691 18.7963C7.77212 18.7963 7.75718 18.7956 7.74213 18.7941C7.52051 18.772 7.36072 18.5915 7.38516 18.391L7.98196 13.4979C8.0064 13.2974 8.20576 13.1527 8.42749 13.1749C8.64912 13.1971 8.80895 13.3775 8.78447 13.578L8.18766 18.4712C8.16487 18.658 7.99 18.7963 7.78691 18.7963Z" fill="#2C2C2C" stroke="#2C2C2C"/>
<path d="M12.2089 18.7629C12.0058 18.7629 11.8309 18.6246 11.8082 18.4377L11.2154 13.5779C11.191 13.3774 11.3508 13.1969 11.5724 13.1748C11.7939 13.1524 11.9935 13.2972 12.0179 13.4978L12.6107 18.3575C12.6351 18.5581 12.4753 18.7385 12.2537 18.7606C12.2386 18.7622 12.2237 18.7629 12.2089 18.7629Z" fill="#2C2C2C" stroke="#2C2C2C"/>
<path d="M9.99996 19C7.15679 19 4.37099 18.0037 4.25377 17.9612C4.09211 17.9027 3.99009 17.757 4.00076 17.5998C4.00741 17.5018 4.16918 15.1786 4.67662 13.1983C5.06787 11.6713 6.30012 10.0037 6.73079 9.45324C6.6789 9.36067 6.62605 9.26704 6.57144 9.17025C5.89074 7.96398 5.11925 6.59677 5.11925 5.19786V4.42426C5.11925 4.22255 5.29999 4.05903 5.52294 4.05903C6.53467 4.05903 7.35776 3.29921 7.35776 2.36523C7.35776 2.16353 7.5385 2 7.76145 2C7.9844 2 8.16514 2.16353 8.16514 2.36523V3.41163C8.16514 4.32697 8.98824 5.07165 9.99996 5.07165C11.0117 5.07165 11.8348 4.32697 11.8348 3.41163V2.36523C11.8348 2.16353 12.0155 2 12.2385 2C12.4614 2 12.6422 2.16353 12.6422 2.36523C12.6422 3.29917 13.4653 4.05903 14.477 4.05903C14.6999 4.05903 14.8807 4.22255 14.8807 4.42426V5.19786C14.8807 6.59661 14.1093 7.96368 13.4287 9.16982C13.374 9.26674 13.3211 9.36054 13.2692 9.45324C13.6998 10.0038 14.9321 11.6714 15.3233 13.1983V13.1983C15.8307 15.1786 15.9926 17.5019 15.9992 17.5998C16.0099 17.757 15.9079 17.9028 15.7462 17.9613C15.6289 18.0037 12.8431 19 9.99996 19ZM4.82826 17.3751C5.58904 17.6202 7.81147 18.2695 9.99996 18.2695C12.1885 18.2695 14.4108 17.6202 15.1717 17.3751C15.1134 16.7036 14.9303 14.8994 14.5368 13.3632C14.1087 11.6925 12.4914 9.7261 12.4751 9.70645C12.3834 9.59581 12.3687 9.44773 12.437 9.32404C12.5258 9.16334 12.6192 8.99779 12.7096 8.83769C13.38 7.64954 14.0733 6.42093 14.0733 5.19786V4.76114C13.5207 4.68281 13.01 4.44402 12.6054 4.06948C12.5884 4.05368 12.5716 4.03774 12.555 4.02161C12.2562 5.04526 11.224 5.80209 9.99996 5.80209C8.77593 5.80209 7.74369 5.04522 7.44492 4.02157C7.42837 4.03771 7.4116 4.05368 7.3945 4.06948C6.98985 4.44402 6.47918 4.68278 5.92663 4.76114V5.19786C5.92663 6.4211 6.61999 7.64981 7.29053 8.83808C7.38081 8.99806 7.47417 9.16347 7.56287 9.32401C7.63128 9.44776 7.61653 9.59581 7.52478 9.70651C7.50856 9.7261 5.89126 11.6925 5.46316 13.3632C5.06952 14.8994 4.8865 16.7036 4.82826 17.3751Z" fill="#2C2C2C" stroke="#2C2C2C"/>
<path d="M1.89305 1.88788L2.28691 0.43759C2.29091 0.422461 2.29952 0.408939 2.31152 0.398899C2.32353 0.388859 2.33834 0.382786 2.35394 0.38152C2.36954 0.380254 2.38516 0.383858 2.39863 0.39183C2.41209 0.399803 2.42276 0.411753 2.42915 0.426038L3.0517 1.79386C3.0563 1.80372 3.06298 1.81247 3.07128 1.81952C3.07957 1.82657 3.08929 1.83175 3.09976 1.83471L4.55006 2.22856C4.56519 2.23257 4.57871 2.24116 4.58875 2.25317C4.59879 2.26517 4.60486 2.28001 4.60613 2.2956C4.60739 2.3112 4.60379 2.3268 4.59582 2.34027C4.58784 2.35374 4.57588 2.36441 4.5616 2.3708L3.19379 2.99336C3.18393 2.99796 3.17518 3.00464 3.16813 3.01293C3.16108 3.02123 3.1559 3.03093 3.15295 3.04141L2.75908 4.49171C2.75508 4.50684 2.74648 4.52035 2.73448 4.53039C2.72247 4.54043 2.70766 4.54651 2.69206 4.54777C2.67646 4.54904 2.66084 4.54543 2.64737 4.53746C2.63391 4.52949 2.62324 4.51754 2.61685 4.50325L1.99429 3.13544C1.98969 3.12558 1.98302 3.11682 1.97472 3.10977C1.96643 3.10272 1.9567 3.09755 1.94623 3.09459L0.495935 2.70073C0.480806 2.69672 0.467294 2.68813 0.457254 2.67612C0.447214 2.66412 0.441139 2.64929 0.439873 2.63369C0.438607 2.61809 0.442212 2.60249 0.450185 2.58902C0.458157 2.57555 0.470107 2.56489 0.484392 2.5585L1.85221 1.93594C1.86207 1.93133 1.87082 1.92466 1.87786 1.91637C1.88491 1.90807 1.8901 1.89836 1.89305 1.88788Z" fill="#2C2C2C"/>
<path d="M18.07 2.10224L17.6762 0.651946C17.6722 0.636816 17.6636 0.623294 17.6516 0.613254C17.6395 0.603215 17.6247 0.597141 17.6091 0.595875C17.5935 0.59461 17.5779 0.598213 17.5644 0.606186C17.551 0.614159 17.5403 0.626108 17.5339 0.640394L16.9114 2.00821C16.9068 2.01808 16.9001 2.02683 16.8918 2.03388C16.8835 2.04093 16.8738 2.04611 16.8633 2.04906L15.413 2.44292C15.3979 2.44692 15.3844 2.45552 15.3743 2.46752C15.3643 2.47953 15.3582 2.49436 15.3569 2.50996C15.3557 2.52556 15.3593 2.54116 15.3673 2.55463C15.3752 2.5681 15.3872 2.57877 15.4015 2.58516L16.7693 3.20771C16.7791 3.21231 16.7879 3.219 16.7949 3.22729C16.802 3.23558 16.8072 3.24529 16.8101 3.25577L17.204 4.70607C17.208 4.7212 17.2166 4.73471 17.2286 4.74475C17.2406 4.75479 17.2554 4.76086 17.271 4.76213C17.2866 4.76339 17.3022 4.75979 17.3157 4.75182C17.3292 4.74384 17.3398 4.73189 17.3462 4.71761L17.9688 3.3498C17.9734 3.33994 17.9801 3.33117 17.9884 3.32412C17.9966 3.31708 18.0064 3.3119 18.0168 3.30895L19.4671 2.91509C19.4823 2.91108 19.4958 2.90249 19.5058 2.89048C19.5159 2.87847 19.5219 2.86364 19.5232 2.84804C19.5245 2.83244 19.5209 2.81684 19.5129 2.80337C19.5049 2.78991 19.493 2.77925 19.4787 2.77285L18.1109 2.15029C18.101 2.14569 18.0923 2.13902 18.0852 2.13072C18.0782 2.12243 18.073 2.11271 18.07 2.10224Z" fill="#2C2C2C"/>
<path d="M2.50457 7.69373L2.76714 6.72687C2.76981 6.71678 2.77554 6.70777 2.78355 6.70107C2.79155 6.69438 2.80143 6.69033 2.81183 6.68949C2.82223 6.68864 2.83264 6.69105 2.84162 6.69636C2.8506 6.70168 2.8577 6.70964 2.86197 6.71917L3.277 7.63104C3.28007 7.63762 3.28452 7.64346 3.29005 7.64815C3.29558 7.65285 3.30206 7.65631 3.30904 7.65828L4.27591 7.92085C4.286 7.92352 4.295 7.92925 4.3017 7.93725C4.30839 7.94526 4.31244 7.95514 4.31328 7.96554C4.31413 7.97594 4.31173 7.98634 4.30641 7.99532C4.3011 8.0043 4.29312 8.01141 4.2836 8.01568L3.37173 8.43071C3.36515 8.43378 3.35932 8.43823 3.35462 8.44376C3.34992 8.44929 3.34647 8.45576 3.3445 8.46275L3.08192 9.42961C3.07925 9.4397 3.07352 9.44871 3.06552 9.4554C3.05752 9.46209 3.04764 9.46614 3.03724 9.46699C3.02684 9.46783 3.01643 9.46543 3.00745 9.46011C2.99847 9.4548 2.99136 9.44683 2.9871 9.43731L2.57206 8.52544C2.56899 8.51886 2.56454 8.51302 2.55902 8.50832C2.55349 8.50362 2.547 8.50017 2.54002 8.4982L1.57316 8.23563C1.56307 8.23296 1.55406 8.22723 1.54737 8.21922C1.54068 8.21122 1.53663 8.20133 1.53578 8.19093C1.53494 8.18053 1.53734 8.17013 1.54266 8.16115C1.54797 8.15217 1.55594 8.14507 1.56546 8.1408L2.47734 7.72576C2.48391 7.7227 2.48974 7.71825 2.49444 7.71272C2.49914 7.70719 2.5026 7.70071 2.50457 7.69373Z" fill="#2C2C2C"/>
<path d="M17.6014 7.69373L17.3388 6.72687C17.3361 6.71678 17.3304 6.70777 17.3224 6.70107C17.3144 6.69438 17.3045 6.69033 17.2941 6.68949C17.2837 6.68864 17.2733 6.69105 17.2643 6.69636C17.2554 6.70168 17.2483 6.70964 17.244 6.71917L16.829 7.63104C16.8259 7.63762 16.8214 7.64346 16.8159 7.64815C16.8104 7.65285 16.8039 7.65631 16.7969 7.65828L15.83 7.92085C15.82 7.92352 15.811 7.92925 15.8043 7.93725C15.7976 7.94526 15.7935 7.95514 15.7927 7.96554C15.7918 7.97594 15.7942 7.98634 15.7995 7.99532C15.8049 8.0043 15.8128 8.01141 15.8224 8.01568L16.7342 8.43071C16.7408 8.43378 16.7466 8.43823 16.7513 8.44376C16.756 8.44929 16.7595 8.45576 16.7615 8.46275L17.024 9.42961C17.0267 9.4397 17.0324 9.44871 17.0404 9.4554C17.0484 9.46209 17.0583 9.46614 17.0687 9.46699C17.0791 9.46783 17.0895 9.46543 17.0985 9.46011C17.1075 9.4548 17.1146 9.44683 17.1189 9.43731L17.5339 8.52544C17.537 8.51886 17.5414 8.51302 17.5469 8.50832C17.5525 8.50362 17.559 8.50017 17.5659 8.4982L18.5328 8.23563C18.5429 8.23296 18.5519 8.22723 18.5586 8.21922C18.5653 8.21122 18.5693 8.20133 18.5702 8.19093C18.571 8.18053 18.5686 8.17013 18.5633 8.16115C18.558 8.15217 18.55 8.14507 18.5405 8.1408L17.6286 7.72576C17.622 7.7227 17.6162 7.71825 17.6115 7.71272C17.6068 7.70719 17.6034 7.70071 17.6014 7.69373Z" fill="#2C2C2C"/>
</svg>
