<svg width="56" height="56" viewBox="0 0 56 56" fill="none" xmlns="http://www.w3.org/2000/svg">
<path d="M1 24C1 11.2975 11.2975 1 24 1H32C44.7025 1 55 11.2975 55 24V32C55 44.7025 44.7025 55 32 55H24C11.2975 55 1 44.7025 1 32V24Z" fill="#E8E6E6"/>
<path d="M1 24C1 11.2975 11.2975 1 24 1H32C44.7025 1 55 11.2975 55 24V32C55 44.7025 44.7025 55 32 55H24C11.2975 55 1 44.7025 1 32V24Z" stroke="#2C2C2C" stroke-width="2"/>
<path d="M17.6782 22.4819L17.6782 22.4818C18.7102 19.708 21.2311 18.1001 24.2661 17.402C27.3057 16.7027 30.6745 16.9703 33.0362 17.7841L33.0374 17.7845C35.0089 18.461 36.4388 19.478 37.4006 20.8012C38.364 22.1264 38.9145 23.8368 38.992 25.9942L38.9921 25.9953C39.107 29.1044 37.9754 31.6606 35.5423 33.7395C34.5812 34.555 34.3409 35.7094 34.269 36.6529C34.2342 37.1107 34.2357 37.576 34.2371 37.9853C34.2372 38.0051 34.2373 38.0249 34.2373 38.0445C34.2384 38.385 34.2381 38.6815 34.2231 38.9467C33.9939 39.0336 33.8362 39.0028 33.6794 38.9365C33.3935 38.8156 33.0698 38.5454 32.6114 38.0886C32.5331 38.0105 32.4503 37.9264 32.3636 37.8383C31.9972 37.4659 31.5604 37.0221 31.0936 36.6633C30.493 36.2017 29.7368 35.7909 28.7975 35.7506L28.7969 35.7506C27.4279 35.6925 26.0688 35.5649 24.7195 35.3677C22.5419 35.0464 20.777 34.1822 19.4941 32.901C18.2131 31.6218 17.3621 29.8766 17.093 27.7034L17.0927 27.7014C16.8632 25.8776 17.0601 24.1427 17.6782 22.4819Z" fill="#BEFF06" stroke="#2C2C2C" stroke-width="2"/>
</svg>
