<svg width="101" height="100" viewBox="0 0 101 100" fill="none" xmlns="http://www.w3.org/2000/svg">
<path d="M83.3352 25.1722L55.5841 9.15008C52.4381 7.33371 48.562 7.33371 45.4159 9.15009L17.6649 25.1722C14.5188 26.9885 12.5808 30.3453 12.5808 33.9781V66.0222C12.5808 69.655 14.5188 73.0118 17.6649 74.8282L45.4159 90.8502C48.562 92.6666 52.4381 92.6666 55.5841 90.8502L83.3352 74.8282C86.4812 73.0118 88.4193 69.655 88.4193 66.0222V33.9781C88.4193 30.3453 86.4812 26.9885 83.3352 25.1722Z" fill="url(#paint0_linear_738_7896)" stroke="#2C2C2C" stroke-width="3.66972"/>
<path d="M60.2396 61.7587C60.9341 61.5512 61.5591 61.655 62.1146 62.0698C62.7049 62.4846 63 63.055 63 63.7809V66.5809C63 67.4796 62.7223 68.2747 62.1667 68.9661C61.6459 69.6574 60.9514 70.0722 60.0834 70.2105C57.7223 70.6253 55.2223 70.8327 52.5834 70.8327C46.6806 70.8327 42.0799 69.1735 38.7813 65.855C35.4827 62.5364 33.8334 57.7142 33.8334 51.3883C33.8334 45.2006 35.4306 40.413 38.625 37.0253C41.8195 33.6377 46.2987 31.9438 52.0625 31.9438C54.7014 31.9438 57.2014 32.1513 59.5625 32.5661C60.4306 32.7043 61.125 33.1192 61.6459 33.8105C62.2014 34.5019 62.4792 35.2969 62.4792 36.1957V39.0994C62.4792 39.8253 62.1841 40.413 61.5938 40.8624C61.0382 41.2772 60.4132 41.3809 59.7188 41.1735C57.566 40.5513 55.448 40.2401 53.3646 40.2401C50.5868 40.2401 48.4167 41.1908 46.8542 43.092C45.2917 44.9587 44.5105 47.7241 44.5105 51.3883C44.5105 54.9834 45.3612 57.7661 47.0625 59.7364C48.7639 61.6722 51.0382 62.6401 53.8855 62.6401C56.073 62.6401 58.191 62.3463 60.2396 61.7587Z" fill="#2C2C2C"/>
<defs>
<linearGradient id="paint0_linear_738_7896" x1="23.9849" y1="18.4339" x2="67.5455" y2="84.7218" gradientUnits="userSpaceOnUse">
<stop stop-color="#D8CCCC"/>
<stop offset="0.475" stop-color="#FFFEFE"/>
<stop offset="1" stop-color="#EDD1D1"/>
</linearGradient>
</defs>
</svg>
