<svg width="24" height="24" viewBox="0 0 24 24" fill="none" xmlns="http://www.w3.org/2000/svg">
<path d="M21.1304 5.73903H18.6261L17.2435 3.65208C16.7217 2.86947 15.8087 2.3999 14.8696 2.3999H9.13043C8.1913 2.3999 7.27826 2.86947 6.75652 3.65208L5.37391 5.73903H2.86957C1.27826 5.73903 0 7.01729 0 8.6086V18.7303C0 20.3216 1.27826 21.5999 2.86957 21.5999H21.1304C22.7217 21.5999 24 20.3216 24 18.7303V8.6086C24 7.01729 22.7217 5.73903 21.1304 5.73903ZM12 19.2521C8.42609 19.2521 5.53043 16.3564 5.53043 12.7825C5.53043 9.2086 8.42609 6.33903 12 6.33903C15.5739 6.33903 18.4696 9.23468 18.4696 12.8086C18.4696 16.3564 15.5739 19.2521 12 19.2521ZM20.7652 9.78251C20.7391 9.78251 20.713 9.78251 20.6609 9.78251H19.6174C19.1478 9.75642 18.7826 9.36512 18.8087 8.89555C18.8348 8.45208 19.1739 8.11295 19.6174 8.08686H20.6609C21.1304 8.06077 21.5217 8.42599 21.5478 8.89555C21.5739 9.36512 21.2348 9.75642 20.7652 9.78251Z" fill="white"/>
<path d="M12 9.20874C10.0174 9.20874 8.40002 10.8261 8.40002 12.8087C8.40002 14.7913 10.0174 16.3827 12 16.3827C13.9826 16.3827 15.6 14.7653 15.6 12.7827C15.6 10.8 13.9826 9.20874 12 9.20874Z" fill="#BEFF06" stroke="white" stroke-width="2"/>
</svg>
