<svg width="49" height="48" viewBox="0 0 49 48" fill="none" xmlns="http://www.w3.org/2000/svg">
<path d="M36.4457 17.6088H32.6891L30.6152 14.4784C29.8326 13.3044 28.463 12.6001 27.0543 12.6001H18.4457C17.037 12.6001 15.6674 13.3044 14.8848 14.4784L12.8109 17.6088H9.05435C6.66739 17.6088 4.75 19.5262 4.75 21.9131V37.0958C4.75 39.4827 6.66739 41.4001 9.05435 41.4001H36.4457C38.8326 41.4001 40.75 39.4827 40.75 37.0958V21.9131C40.75 19.5262 38.8326 17.6088 36.4457 17.6088ZM22.75 37.8784C17.3891 37.8784 13.0457 33.5349 13.0457 28.174C13.0457 22.8131 17.3891 18.5088 22.75 18.5088C28.1109 18.5088 32.4543 22.8523 32.4543 28.2131C32.4543 33.5349 28.1109 37.8784 22.75 37.8784ZM35.8978 23.674C35.8587 23.674 35.8196 23.674 35.7413 23.674H34.1761C33.4717 23.6349 32.9239 23.0479 32.963 22.3436C33.0022 21.6784 33.5109 21.1697 34.1761 21.1305H35.7413C36.4457 21.0914 37.0326 21.6392 37.0717 22.3436C37.1109 23.0479 36.6022 23.6349 35.8978 23.674Z" fill="#2C2C2C"/>
<path d="M22.7499 22.8131C19.7759 22.8131 17.3499 25.2392 17.3499 28.2131C17.3499 31.187 19.7759 33.574 22.7499 33.574C25.7238 33.574 28.1499 31.1479 28.1499 28.174C28.1499 25.2001 25.7238 22.8131 22.7499 22.8131Z" fill="#BEFF06" stroke="#2C2C2C" stroke-width="3"/>
<path d="M30.1829 6.83436L30.9707 3.93377C30.9787 3.90352 30.9959 3.87647 31.0199 3.85639C31.0439 3.83631 31.0735 3.82417 31.1047 3.82163C31.1359 3.8191 31.1672 3.82631 31.1941 3.84225C31.221 3.8582 31.2424 3.8821 31.2551 3.91067L32.5002 6.64631C32.5095 6.66603 32.5228 6.68354 32.5394 6.69764C32.556 6.71173 32.5754 6.7221 32.5964 6.72801L35.497 7.51571C35.5272 7.52373 35.5543 7.54092 35.5743 7.56493C35.5944 7.58894 35.6066 7.61861 35.6091 7.6498C35.6116 7.681 35.6044 7.7122 35.5885 7.73914C35.5725 7.76607 35.5486 7.78741 35.52 7.8002L32.7844 9.0453C32.7647 9.05451 32.7472 9.06787 32.7331 9.08446C32.719 9.10105 32.7087 9.12046 32.7028 9.14141L31.915 12.042C31.907 12.0723 31.8898 12.0993 31.8658 12.1194C31.8418 12.1395 31.8122 12.1516 31.781 12.1541C31.7498 12.1567 31.7185 12.1495 31.6916 12.1335C31.6647 12.1176 31.6433 12.0937 31.6306 12.0651L30.3854 9.32948C30.3762 9.30976 30.3629 9.29223 30.3463 9.27813C30.3297 9.26403 30.3103 9.25369 30.2893 9.24778L27.3887 8.46006C27.3585 8.45204 27.3314 8.43485 27.3114 8.41084C27.2913 8.38683 27.2791 8.35716 27.2766 8.32597C27.2741 8.29477 27.2813 8.26357 27.2972 8.23663C27.3132 8.2097 27.3371 8.18837 27.3656 8.17559L30.1013 6.93047C30.121 6.92126 30.1385 6.90791 30.1526 6.89133C30.1667 6.87474 30.177 6.85531 30.1829 6.83436Z" fill="#2C2C2C"/>
<path d="M41.7178 12.6855L43.8925 11.6637C43.9151 11.6529 43.9405 11.6494 43.9651 11.6536C43.9898 11.6578 44.0125 11.6696 44.0302 11.6873C44.0479 11.705 44.0597 11.7277 44.0639 11.7524C44.0682 11.7771 44.0647 11.8024 44.0539 11.825L43.032 13.9997C43.0248 14.0156 43.021 14.0328 43.021 14.0502C43.021 14.0676 43.0248 14.0848 43.032 14.1006L44.0539 16.2753C44.0647 16.2979 44.0682 16.3233 44.0639 16.3479C44.0597 16.3726 44.0479 16.3954 44.0302 16.413C44.0125 16.4307 43.9898 16.4425 43.9651 16.4467C43.9405 16.451 43.9151 16.4474 43.8925 16.4367L41.7178 15.4148C41.702 15.4076 41.6848 15.4038 41.6674 15.4038C41.65 15.4038 41.6328 15.4076 41.6169 15.4148L39.4422 16.4367C39.4196 16.4474 39.3943 16.451 39.3696 16.4467C39.3449 16.4425 39.3222 16.4307 39.3045 16.413C39.2868 16.3954 39.275 16.3726 39.2708 16.3479C39.2666 16.3233 39.2701 16.2979 39.2809 16.2753L40.3027 14.1006C40.3099 14.0848 40.3137 14.0676 40.3137 14.0502C40.3137 14.0328 40.3099 14.0156 40.3027 13.9997L39.2809 11.825C39.2701 11.8024 39.2666 11.7771 39.2708 11.7524C39.275 11.7277 39.2868 11.705 39.3045 11.6873C39.3222 11.6696 39.3449 11.6578 39.3696 11.6536C39.3943 11.6494 39.4196 11.6529 39.4422 11.6637L41.6169 12.6855C41.6328 12.6927 41.65 12.6965 41.6674 12.6965C41.6848 12.6965 41.702 12.6927 41.7178 12.6855Z" fill="#2C2C2C"/>
</svg>
