<svg width="56" height="56" viewBox="0 0 56 56" fill="none" xmlns="http://www.w3.org/2000/svg">
<path d="M1 20C1 9.50659 9.50659 1 20 1H36C46.4934 1 55 9.50659 55 20V36C55 46.4934 46.4934 55 36 55H20C9.50659 55 1 46.4934 1 36V20Z" fill="white"/>
<path d="M1 20C1 9.50659 9.50659 1 20 1H36C46.4934 1 55 9.50659 55 20V36C55 46.4934 46.4934 55 36 55H20C9.50659 55 1 46.4934 1 36V20Z" stroke="#2C2C2C" stroke-width="2"/>
<path fill-rule="evenodd" clip-rule="evenodd" d="M22.2929 22.2929C22.6834 21.9024 23.3166 21.9024 23.7071 22.2929L28 26.5858L32.2929 22.2929C32.6834 21.9024 33.3166 21.9024 33.7071 22.2929C34.0976 22.6834 34.0976 23.3166 33.7071 23.7071L29.4142 28L33.7071 32.2929C34.0976 32.6834 34.0976 33.3166 33.7071 33.7071C33.3166 34.0976 32.6834 34.0976 32.2929 33.7071L28 29.4142L23.7071 33.7071C23.3166 34.0976 22.6834 34.0976 22.2929 33.7071C21.9024 33.3166 21.9024 32.6834 22.2929 32.2929L26.5858 28L22.2929 23.7071C21.9024 23.3166 21.9024 22.6834 22.2929 22.2929Z" fill="#2C2C2C"/>
</svg>
