<svg width="14" height="14" viewBox="0 0 14 14" fill="none" xmlns="http://www.w3.org/2000/svg">
<g clip-path="url(#clip0_553_4120)">
<path d="M12.3262 3.34797H10.8653L10.0588 2.13058C9.75447 1.67406 9.22186 1.40015 8.67404 1.40015H5.32621C4.77838 1.40015 4.24577 1.67406 3.94143 2.13058L3.1349 3.34797H1.67404C0.745774 3.34797 0.00012207 4.09362 0.00012207 5.02189V10.9262C0.00012207 11.8545 0.745774 12.6001 1.67404 12.6001H12.3262C13.2545 12.6001 14.0001 11.8545 14.0001 10.9262V5.02189C14.0001 4.09362 13.2545 3.34797 12.3262 3.34797ZM7.00012 11.2306C4.91534 11.2306 3.22621 9.54145 3.22621 7.45667C3.22621 5.37189 4.91534 3.69797 7.00012 3.69797C9.0849 3.69797 10.774 5.3871 10.774 7.47189C10.774 9.54145 9.0849 11.2306 7.00012 11.2306ZM12.1132 5.70667C12.0979 5.70667 12.0827 5.70667 12.0523 5.70667H11.4436C11.1697 5.69145 10.9566 5.46319 10.9719 5.18928C10.9871 4.93058 11.1849 4.73276 11.4436 4.71754H12.0523C12.3262 4.70232 12.5545 4.91536 12.5697 5.18928C12.5849 5.46319 12.3871 5.69145 12.1132 5.70667Z" fill="#2C2C2C"/>
<path d="M12.3261 3.34797H10.8652L10.0587 2.13058C9.75435 1.67406 9.22174 1.40015 8.67391 1.40015H5.32609C4.77826 1.40015 4.24565 1.67406 3.9413 2.13058L3.13478 3.34797H1.67391C0.745652 3.34797 0 4.09362 0 5.02189V10.9262C0 11.8545 0.745652 12.6001 1.67391 12.6001H12.3261C13.2543 12.6001 14 11.8545 14 10.9262V5.02189C14 4.09362 13.2543 3.34797 12.3261 3.34797ZM7 11.2306C4.91522 11.2306 3.22609 9.54145 3.22609 7.45667C3.22609 5.37189 4.91522 3.69797 7 3.69797C9.08478 3.69797 10.7739 5.3871 10.7739 7.47189C10.7739 9.54145 9.08478 11.2306 7 11.2306ZM12.113 5.70667C12.0978 5.70667 12.0826 5.70667 12.0522 5.70667H11.4435C11.1696 5.69145 10.9565 5.46319 10.9717 5.18928C10.987 4.93058 11.1848 4.73276 11.4435 4.71754H12.0522C12.3261 4.70232 12.5543 4.91536 12.5696 5.18928C12.5848 5.46319 12.387 5.69145 12.113 5.70667Z" fill="#2C2C2C"/>
<path d="M7.00039 5.37183C5.84387 5.37183 4.90039 6.3153 4.90039 7.47183C4.90039 8.62835 5.84387 9.55661 7.00039 9.55661C8.15691 9.55661 9.10039 8.61313 9.10039 7.45661C9.10039 6.30009 8.15691 5.37183 7.00039 5.37183Z" fill="#BEFF06" stroke="#2C2C2C" stroke-width="1.16667"/>
</g>
<defs>
<clipPath id="clip0_553_4120">
<rect width="14" height="14" fill="white"/>
</clipPath>
</defs>
</svg>
