<svg width="65" height="65" viewBox="0 0 65 65" fill="none" xmlns="http://www.w3.org/2000/svg">
<path d="M2.07568 24.1954C2.03736 12.0452 11.856 2.16445 24.0062 2.12613L40.0061 2.07568C52.1563 2.03736 62.0371 11.856 62.0754 24.0062L62.1258 40.0061C62.1641 52.1563 52.3455 62.0371 40.1953 62.0754L24.1954 62.1258C12.0452 62.1641 2.16445 52.3455 2.12613 40.1953L2.07568 24.1954Z" fill="#FFC852"/>
<path d="M2.07568 24.1954C2.03736 12.0452 11.856 2.16445 24.0062 2.12613L40.0061 2.07568C52.1563 2.03736 62.0371 11.856 62.0754 24.0062L62.1258 40.0061C62.1641 52.1563 52.3455 62.0371 40.1953 62.0754L24.1954 62.1258C12.0452 62.1641 2.16445 52.3455 2.12613 40.1953L2.07568 24.1954Z" stroke="#2C2C2C" stroke-width="4"/>
<mask id="path-2-inside-1_0_30" fill="white">
<path fill-rule="evenodd" clip-rule="evenodd" d="M23.9944 24.0454C24.773 23.2619 26.0393 23.2579 26.8228 24.0365L32.0918 29.2723L37.3277 24.0033C38.1063 23.2198 39.3726 23.2158 40.1561 23.9944C40.9396 24.773 40.9436 26.0393 40.165 26.8228L34.9292 32.0918L40.1982 37.3277C40.9817 38.1063 40.9857 39.3726 40.2071 40.1561C39.4285 40.9396 38.1622 40.9436 37.3787 40.165L32.1097 34.9292L26.8738 40.1982C26.0952 40.9817 24.8289 40.9857 24.0454 40.2071C23.2619 39.4285 23.2579 38.1622 24.0365 37.3787L29.2723 32.1097L24.0033 26.8738C23.2198 26.0952 23.2158 24.8289 23.9944 24.0454Z"/>
</mask>
<path fill-rule="evenodd" clip-rule="evenodd" d="M23.9944 24.0454C24.773 23.2619 26.0393 23.2579 26.8228 24.0365L32.0918 29.2723L37.3277 24.0033C38.1063 23.2198 39.3726 23.2158 40.1561 23.9944C40.9396 24.773 40.9436 26.0393 40.165 26.8228L34.9292 32.0918L40.1982 37.3277C40.9817 38.1063 40.9857 39.3726 40.2071 40.1561C39.4285 40.9396 38.1622 40.9436 37.3787 40.165L32.1097 34.9292L26.8738 40.1982C26.0952 40.9817 24.8289 40.9857 24.0454 40.2071C23.2619 39.4285 23.2579 38.1622 24.0365 37.3787L29.2723 32.1097L24.0033 26.8738C23.2198 26.0952 23.2158 24.8289 23.9944 24.0454Z" fill="#EA4710"/>
<path d="M26.8228 24.0365L25.4131 25.4551L25.4131 25.4551L26.8228 24.0365ZM23.9944 24.0454L25.4131 25.4551L25.4131 25.4551L23.9944 24.0454ZM32.0918 29.2723L30.6821 30.691L32.1008 32.1008L33.5105 30.6821L32.0918 29.2723ZM37.3277 24.0033L38.7464 25.4131L38.7464 25.4131L37.3277 24.0033ZM40.1561 23.9944L38.7464 25.4131L38.7464 25.4131L40.1561 23.9944ZM40.165 26.8228L38.7464 25.4131L38.7464 25.4131L40.165 26.8228ZM34.9292 32.0918L33.5105 30.6821L32.1008 32.1008L33.5194 33.5105L34.9292 32.0918ZM40.1982 37.3277L38.7884 38.7464L38.7884 38.7464L40.1982 37.3277ZM40.2071 40.1561L38.7884 38.7464L38.7884 38.7464L40.2071 40.1561ZM37.3787 40.165L38.7884 38.7464L38.7884 38.7464L37.3787 40.165ZM32.1097 34.9292L33.5194 33.5105L32.1008 32.1008L30.691 33.5194L32.1097 34.9292ZM26.8738 40.1982L25.4551 38.7884L25.4551 38.7884L26.8738 40.1982ZM24.0454 40.2071L25.4551 38.7884L25.4551 38.7884L24.0454 40.2071ZM24.0365 37.3787L25.4551 38.7884L25.4551 38.7884L24.0365 37.3787ZM29.2723 32.1097L30.691 33.5194L32.1008 32.1008L30.6821 30.691L29.2723 32.1097ZM24.0033 26.8738L25.4131 25.4551L25.4131 25.4551L24.0033 26.8738ZM28.2326 22.6178C26.6656 21.0606 24.1329 21.0686 22.5758 22.6357L25.4131 25.4551L25.4131 25.4551L28.2326 22.6178ZM33.5016 27.8537L28.2326 22.6178L25.4131 25.4551L30.6821 30.691L33.5016 27.8537ZM35.909 22.5936L30.6732 27.8626L33.5105 30.6821L38.7464 25.4131L35.909 22.5936ZM41.5659 22.5758C39.9988 21.0186 37.4662 21.0266 35.909 22.5936L38.7464 25.4131L38.7464 25.4131L41.5659 22.5758ZM41.5837 28.2326C43.1409 26.6656 43.1329 24.1329 41.5659 22.5758L38.7464 25.4131L38.7464 25.4131L41.5837 28.2326ZM36.3478 33.5016L41.5837 28.2326L38.7464 25.4131L33.5105 30.6821L36.3478 33.5016ZM41.6079 35.909L36.3389 30.6732L33.5194 33.5105L38.7884 38.7464L41.6079 35.909ZM41.6257 41.5659C43.1829 39.9988 43.1749 37.4662 41.6079 35.909L38.7884 38.7464L38.7884 38.7464L41.6257 41.5659ZM35.9689 41.5837C37.5359 43.1409 40.0686 43.1329 41.6257 41.5659L38.7884 38.7464L38.7884 38.7464L35.9689 41.5837ZM30.6999 36.3478L35.9689 41.5837L38.7884 38.7464L33.5194 33.5105L30.6999 36.3478ZM28.2925 41.6079L33.5283 36.3389L30.691 33.5194L25.4551 38.7884L28.2925 41.6079ZM22.6357 41.6257C24.2027 43.1829 26.7353 43.1749 28.2925 41.6079L25.4551 38.7884L25.4551 38.7884L22.6357 41.6257ZM22.6178 35.9689C21.0606 37.5359 21.0686 40.0686 22.6357 41.6257L25.4551 38.7884L25.4551 38.7884L22.6178 35.9689ZM27.8537 30.6999L22.6178 35.9689L25.4551 38.7884L30.691 33.5194L27.8537 30.6999ZM22.5936 28.2925L27.8626 33.5283L30.6821 30.691L25.4131 25.4551L22.5936 28.2925ZM22.5758 22.6357C21.0186 24.2027 21.0266 26.7353 22.5936 28.2925L25.4131 25.4551L25.4131 25.4551L22.5758 22.6357Z" fill="#2C2C2C" mask="url(#path-2-inside-1_0_30)"/>
</svg>
