<svg width="56" height="56" viewBox="0 0 56 56" fill="none" xmlns="http://www.w3.org/2000/svg">
<path d="M1 24C1 11.2975 11.2975 1 24 1H32C44.7025 1 55 11.2975 55 24V32C55 44.7025 44.7025 55 32 55H24C11.2975 55 1 44.7025 1 32V24Z" fill="#E8E6E6"/>
<path d="M1 24C1 11.2975 11.2975 1 24 1H32C44.7025 1 55 11.2975 55 24V32C55 44.7025 44.7025 55 32 55H24C11.2975 55 1 44.7025 1 32V24Z" stroke="#2C2C2C" stroke-width="2"/>
<path fill-rule="evenodd" clip-rule="evenodd" d="M21.5858 21.5858C22.3668 20.8047 23.6332 20.8047 24.4142 21.5858L28 25.1716L31.5858 21.5858C32.3668 20.8047 33.6332 20.8047 34.4142 21.5858C35.1953 22.3668 35.1953 23.6332 34.4142 24.4142L30.8284 28L34.4142 31.5858C35.1953 32.3668 35.1953 33.6332 34.4142 34.4142C33.6332 35.1953 32.3668 35.1953 31.5858 34.4142L28 30.8284L24.4142 34.4142C23.6332 35.1953 22.3668 35.1953 21.5858 34.4142C20.8047 33.6332 20.8047 32.3668 21.5858 31.5858L25.1716 28L21.5858 24.4142C20.8047 23.6332 20.8047 22.3668 21.5858 21.5858Z" fill="#2C2C2C"/>
</svg>
