<svg width="56" height="56" viewBox="0 0 56 56" fill="none" xmlns="http://www.w3.org/2000/svg">
<path d="M0 20C0 8.95431 8.95431 0 20 0H36C47.0457 0 56 8.95431 56 20V36C56 47.0457 47.0457 56 36 56H20C8.95431 56 0 47.0457 0 36V20Z" fill="#F7F3F3"/>
<path fill-rule="evenodd" clip-rule="evenodd" d="M29 20C29 19.4477 28.5523 19 28 19C27.4477 19 27 19.4477 27 20L27 30.5858L23.7071 27.2929C23.3166 26.9024 22.6834 26.9024 22.2929 27.2929C21.9024 27.6834 21.9024 28.3166 22.2929 28.7071L27.2929 33.7071C27.6834 34.0976 28.3166 34.0976 28.7071 33.7071L33.7071 28.7071C34.0976 28.3166 34.0976 27.6834 33.7071 27.2929C33.3166 26.9024 32.6834 26.9024 32.2929 27.2929L29 30.5858L29 20ZM22 35C21.4477 35 21 35.4477 21 36C21 36.5523 21.4477 37 22 37H34C34.5523 37 35 36.5523 35 36C35 35.4477 34.5523 35 34 35H22Z" fill="#2C2C2C"/>
</svg>
