<svg width="56" height="56" viewBox="0 0 56 56" fill="none" xmlns="http://www.w3.org/2000/svg">
<g filter="url(#filter0_i_902_3172)">
<path d="M0 24C0 10.7452 10.7452 0 24 0H32C45.2548 0 56 10.7452 56 24V32C56 45.2548 45.2548 56 32 56H24C10.7452 56 0 45.2548 0 32V24Z" fill="white"/>
<path d="M1.5 24C1.5 11.5736 11.5736 1.5 24 1.5H32C44.4264 1.5 54.5 11.5736 54.5 24V32C54.5 44.4264 44.4264 54.5 32 54.5H24C11.5736 54.5 1.5 44.4264 1.5 32V24Z" stroke="url(#paint0_linear_902_3172)" stroke-width="3"/>
<path d="M24.6452 13.6891L26.095 13.0079C26.1101 13.0007 26.127 12.9983 26.1434 13.0012C26.1599 13.004 26.175 13.0118 26.1868 13.0236C26.1986 13.0354 26.2065 13.0506 26.2093 13.067C26.2121 13.0835 26.2098 13.1004 26.2026 13.1154L25.5214 14.5653C25.5165 14.5758 25.514 14.5873 25.514 14.5989C25.514 14.6105 25.5165 14.6219 25.5214 14.6325L26.2026 16.0823C26.2098 16.0974 26.2121 16.1143 26.2093 16.1307C26.2065 16.1472 26.1986 16.1623 26.1868 16.1741C26.175 16.1859 26.1599 16.1938 26.1434 16.1966C26.127 16.1994 26.1101 16.1971 26.095 16.1899L24.6452 15.5087C24.6346 15.5038 24.6232 15.5013 24.6116 15.5013C24.6 15.5013 24.5885 15.5038 24.578 15.5087L23.1281 16.1899C23.1131 16.1971 23.0962 16.1994 23.0797 16.1966C23.0633 16.1938 23.0481 16.1859 23.0363 16.1741C23.0245 16.1623 23.0167 16.1472 23.0139 16.1307C23.011 16.1143 23.0134 16.0974 23.0206 16.0823L23.7018 14.6325C23.7066 14.6219 23.7091 14.6105 23.7091 14.5989C23.7091 14.5873 23.7066 14.5758 23.7018 14.5653L23.0206 13.1154C23.0134 13.1004 23.011 13.0835 23.0139 13.067C23.0167 13.0506 23.0245 13.0354 23.0363 13.0236C23.0481 13.0118 23.0633 13.004 23.0797 13.0012C23.0962 12.9983 23.1131 13.0007 23.1281 13.0079L24.578 13.6891C24.5885 13.6939 24.6 13.6964 24.6116 13.6964C24.6232 13.6964 24.6346 13.6939 24.6452 13.6891Z" fill="#2C2C2C"/>
<path d="M32.4501 11.5389L33.1065 9.12173C33.1132 9.09652 33.1275 9.07398 33.1476 9.05725C33.1676 9.04051 33.1923 9.03039 33.2183 9.02828C33.2443 9.02617 33.2703 9.03218 33.2927 9.04547C33.3152 9.05875 33.3329 9.07867 33.3436 9.10248L34.3812 11.3822C34.3889 11.3986 34.4 11.4132 34.4138 11.425C34.4276 11.4367 34.4438 11.4453 34.4613 11.4503L36.8785 12.1067C36.9037 12.1134 36.9262 12.1277 36.9429 12.1477C36.9597 12.1677 36.9698 12.1924 36.9719 12.2184C36.974 12.2444 36.968 12.2704 36.9547 12.2929C36.9414 12.3153 36.9215 12.3331 36.8977 12.3438L34.618 13.3813C34.6016 13.389 34.587 13.4001 34.5752 13.414C34.5635 13.4278 34.5549 13.444 34.5499 13.4614L33.8935 15.8786C33.8868 15.9038 33.8725 15.9263 33.8525 15.9431C33.8325 15.9598 33.8078 15.9699 33.7818 15.972C33.7558 15.9741 33.7298 15.9681 33.7073 15.9548C33.6849 15.9416 33.6671 15.9216 33.6564 15.8978L32.6188 13.6182C32.6112 13.6017 32.6001 13.5871 32.5862 13.5754C32.5724 13.5636 32.5562 13.555 32.5387 13.5501L30.1216 12.8936C30.0964 12.887 30.0738 12.8726 30.0571 12.8526C30.0404 12.8326 30.0303 12.8079 30.0281 12.7819C30.026 12.7559 30.032 12.7299 30.0453 12.7074C30.0586 12.685 30.0785 12.6672 30.1023 12.6566L32.382 11.619C32.3985 11.6113 32.4131 11.6002 32.4248 11.5864C32.4365 11.5725 32.4452 11.5563 32.4501 11.5389Z" fill="#2C2C2C"/>
<path d="M37.1304 21.739H34.6261L33.2435 19.6521C32.7217 18.8695 31.8087 18.3999 30.8696 18.3999H25.1304C24.1913 18.3999 23.2783 18.8695 22.7565 19.6521L21.3739 21.739H18.8696C17.2783 21.739 16 23.0173 16 24.6086V34.7303C16 36.3216 17.2783 37.5999 18.8696 37.5999H37.1304C38.7217 37.5999 40 36.3216 40 34.7303V24.6086C40 23.0173 38.7217 21.739 37.1304 21.739ZM28 35.2521C24.4261 35.2521 21.5304 32.3564 21.5304 28.7825C21.5304 25.2086 24.4261 22.339 28 22.339C31.5739 22.339 34.4696 25.2347 34.4696 28.8086C34.4696 32.3564 31.5739 35.2521 28 35.2521ZM36.7652 25.7825C36.7391 25.7825 36.713 25.7825 36.6609 25.7825H35.6174C35.1478 25.7564 34.7826 25.3651 34.8087 24.8956C34.8348 24.4521 35.1739 24.1129 35.6174 24.0869H36.6609C37.1304 24.0608 37.5217 24.426 37.5478 24.8956C37.5739 25.3651 37.2348 25.7564 36.7652 25.7825Z" fill="#2C2C2C"/>
<path d="M27.9999 25.2085C26.0173 25.2085 24.3999 26.8259 24.3999 28.8085C24.3999 30.7911 26.0173 32.3824 27.9999 32.3824C29.9825 32.3824 31.5999 30.765 31.5999 28.7824C31.5999 26.7998 29.9825 25.2085 27.9999 25.2085Z" fill="#BEFF06" stroke="#2C2C2C" stroke-width="2"/>
</g>
<defs>
<filter id="filter0_i_902_3172" x="0" y="0" width="56" height="60" filterUnits="userSpaceOnUse" color-interpolation-filters="sRGB">
<feFlood flood-opacity="0" result="BackgroundImageFix"/>
<feBlend mode="normal" in="SourceGraphic" in2="BackgroundImageFix" result="shape"/>
<feColorMatrix in="SourceAlpha" type="matrix" values="0 0 0 0 0 0 0 0 0 0 0 0 0 0 0 0 0 0 127 0" result="hardAlpha"/>
<feOffset dy="4"/>
<feGaussianBlur stdDeviation="2"/>
<feComposite in2="hardAlpha" operator="arithmetic" k2="-1" k3="1"/>
<feColorMatrix type="matrix" values="0 0 0 0 1 0 0 0 0 1 0 0 0 0 1 0 0 0 0.25 0"/>
<feBlend mode="normal" in2="shape" result="effect1_innerShadow_902_3172"/>
</filter>
<linearGradient id="paint0_linear_902_3172" x1="28" y1="0" x2="50.5" y2="28" gradientUnits="userSpaceOnUse">
<stop offset="0.09" stop-color="#FF8642"/>
<stop offset="1" stop-color="#FF00B8"/>
</linearGradient>
</defs>
</svg>
