<svg width="56" height="56" viewBox="0 0 56 56" fill="none" xmlns="http://www.w3.org/2000/svg">
<path d="M1 24C1 11.2975 11.2975 1 24 1H32C44.7025 1 55 11.2975 55 24V32C55 44.7025 44.7025 55 32 55H24C11.2975 55 1 44.7025 1 32V24Z" fill="white"/>
<path d="M1 24C1 11.2975 11.2975 1 24 1H32C44.7025 1 55 11.2975 55 24V32C55 44.7025 44.7025 55 32 55H24C11.2975 55 1 44.7025 1 32V24Z" stroke="#2C2C2C" stroke-width="2"/>
<path d="M24.6452 13.6891L26.095 13.0079C26.1101 13.0007 26.127 12.9983 26.1434 13.0012C26.1599 13.004 26.175 13.0118 26.1868 13.0236C26.1986 13.0354 26.2065 13.0506 26.2093 13.067C26.2121 13.0835 26.2098 13.1004 26.2026 13.1154L25.5214 14.5653C25.5165 14.5758 25.514 14.5873 25.514 14.5989C25.514 14.6105 25.5165 14.6219 25.5214 14.6325L26.2026 16.0823C26.2098 16.0974 26.2121 16.1143 26.2093 16.1307C26.2065 16.1472 26.1986 16.1623 26.1868 16.1741C26.175 16.1859 26.1599 16.1938 26.1434 16.1966C26.127 16.1994 26.1101 16.1971 26.095 16.1899L24.6452 15.5087C24.6346 15.5038 24.6232 15.5013 24.6116 15.5013C24.6 15.5013 24.5885 15.5038 24.578 15.5087L23.1281 16.1899C23.1131 16.1971 23.0962 16.1994 23.0797 16.1966C23.0633 16.1938 23.0481 16.1859 23.0363 16.1741C23.0245 16.1623 23.0167 16.1472 23.0139 16.1307C23.011 16.1143 23.0134 16.0974 23.0206 16.0823L23.7018 14.6325C23.7066 14.6219 23.7091 14.6105 23.7091 14.5989C23.7091 14.5873 23.7066 14.5758 23.7018 14.5653L23.0206 13.1154C23.0134 13.1004 23.011 13.0835 23.0139 13.067C23.0167 13.0506 23.0245 13.0354 23.0363 13.0236C23.0481 13.0118 23.0633 13.004 23.0797 13.0012C23.0962 12.9983 23.1131 13.0007 23.1281 13.0079L24.578 13.6891C24.5885 13.6939 24.6 13.6964 24.6116 13.6964C24.6232 13.6964 24.6346 13.6939 24.6452 13.6891Z" fill="#2C2C2C"/>
<path d="M32.4501 11.5386L33.1065 9.12149C33.1132 9.09627 33.1275 9.07374 33.1476 9.057C33.1676 9.04027 33.1923 9.03015 33.2183 9.02804C33.2443 9.02593 33.2703 9.03193 33.2927 9.04522C33.3152 9.05851 33.3329 9.07843 33.3436 9.10224L34.3812 11.3819C34.3889 11.3984 34.4 11.413 34.4138 11.4247C34.4276 11.4365 34.4438 11.4451 34.4613 11.45L36.8785 12.1064C36.9037 12.1131 36.9262 12.1274 36.9429 12.1474C36.9597 12.1675 36.9698 12.1922 36.9719 12.2182C36.974 12.2442 36.968 12.2702 36.9547 12.2926C36.9414 12.3151 36.9215 12.3329 36.8977 12.3435L34.618 13.3811C34.6016 13.3888 34.587 13.3999 34.5752 13.4137C34.5635 13.4276 34.5549 13.4437 34.5499 13.4612L33.8935 15.8784C33.8868 15.9036 33.8725 15.9261 33.8525 15.9428C33.8325 15.9596 33.8078 15.9697 33.7818 15.9718C33.7558 15.9739 33.7298 15.9679 33.7073 15.9546C33.6849 15.9413 33.6671 15.9214 33.6564 15.8976L32.6188 13.6179C32.6112 13.6015 32.6001 13.5869 32.5862 13.5751C32.5724 13.5634 32.5562 13.5547 32.5387 13.5498L30.1216 12.8934C30.0964 12.8867 30.0738 12.8724 30.0571 12.8524C30.0404 12.8324 30.0303 12.8076 30.0281 12.7816C30.026 12.7556 30.032 12.7296 30.0453 12.7072C30.0586 12.6848 30.0785 12.667 30.1023 12.6563L32.382 11.6187C32.3985 11.6111 32.4131 11.5999 32.4248 11.5861C32.4365 11.5723 32.4452 11.5561 32.4501 11.5386Z" fill="#2C2C2C"/>
<path d="M37.1304 21.7391H34.6261L33.2435 19.6522C32.7217 18.8696 31.8087 18.4 30.8696 18.4H25.1304C24.1913 18.4 23.2783 18.8696 22.7565 19.6522L21.3739 21.7391H18.8696C17.2783 21.7391 16 23.0174 16 24.6087V34.7304C16 36.3217 17.2783 37.6 18.8696 37.6H37.1304C38.7217 37.6 40 36.3217 40 34.7304V24.6087C40 23.0174 38.7217 21.7391 37.1304 21.7391ZM28 35.2522C24.4261 35.2522 21.5304 32.3565 21.5304 28.7826C21.5304 25.2087 24.4261 22.3391 28 22.3391C31.5739 22.3391 34.4696 25.2348 34.4696 28.8087C34.4696 32.3565 31.5739 35.2522 28 35.2522ZM36.7652 25.7826C36.7391 25.7826 36.713 25.7826 36.6609 25.7826H35.6174C35.1478 25.7565 34.7826 25.3652 34.8087 24.8956C34.8348 24.4522 35.1739 24.113 35.6174 24.087H36.6609C37.1304 24.0609 37.5217 24.4261 37.5478 24.8956C37.5739 25.3652 37.2348 25.7565 36.7652 25.7826Z" fill="#2C2C2C"/>
<path d="M28 25.2087C26.0174 25.2087 24.4 26.8261 24.4 28.8087C24.4 30.7913 26.0174 32.3826 28 32.3826C29.9826 32.3826 31.6 30.7652 31.6 28.7826C31.6 26.8 29.9826 25.2087 28 25.2087Z" fill="#BEFF06" stroke="#2C2C2C" stroke-width="2"/>
</svg>
