<svg width="56" height="56" viewBox="0 0 56 56" fill="none" xmlns="http://www.w3.org/2000/svg">
<path d="M1 20C1 9.50659 9.50659 1 20 1H36C46.4934 1 55 9.50659 55 20V36C55 46.4934 46.4934 55 36 55H20C9.50659 55 1 46.4934 1 36V20Z" fill="white"/>
<path d="M1 20C1 9.50659 9.50659 1 20 1H36C46.4934 1 55 9.50659 55 20V36C55 46.4934 46.4934 55 36 55H20C9.50659 55 1 46.4934 1 36V20Z" stroke="#2C2C2C" stroke-width="2"/>
<path fill-rule="evenodd" clip-rule="evenodd" d="M29 22C29 21.4477 28.5523 21 28 21C27.4477 21 27 21.4477 27 22V27H22C21.4477 27 21 27.4477 21 28C21 28.5523 21.4477 29 22 29H27V34C27 34.5523 27.4477 35 28 35C28.5523 35 29 34.5523 29 34V29H34C34.5523 29 35 28.5523 35 28C35 27.4477 34.5523 27 34 27H29V22Z" fill="#2C2C2C"/>
</svg>
