<svg width="56" height="56" viewBox="0 0 56 56" fill="none" xmlns="http://www.w3.org/2000/svg">
<path d="M2 24C2 11.8497 11.8497 2 24 2H32C44.1503 2 54 11.8497 54 24V32C54 44.1503 44.1503 54 32 54H24C11.8497 54 2 44.1503 2 32V24Z" fill="#0DF892"/>
<path d="M2 24C2 11.8497 11.8497 2 24 2H32C44.1503 2 54 11.8497 54 24V32C54 44.1503 44.1503 54 32 54H24C11.8497 54 2 44.1503 2 32V24Z" stroke="#2C2C2C" stroke-width="4"/>
<mask id="path-2-inside-1_1034_16368" fill="white">
<path fill-rule="evenodd" clip-rule="evenodd" d="M40.081 19.9191C40.862 20.7001 40.862 21.9665 40.081 22.7475L26.7476 36.0809C26.3726 36.4559 25.8638 36.6666 25.3334 36.6666C24.803 36.6666 24.2943 36.4559 23.9192 36.0809L17.2525 29.4142C16.4715 28.6331 16.4715 27.3668 17.2525 26.5858C18.0336 25.8047 19.2999 25.8047 20.081 26.5858L25.3334 31.8382L37.2525 19.9191C38.0336 19.1381 39.2999 19.1381 40.081 19.9191Z"/>
</mask>
<path fill-rule="evenodd" clip-rule="evenodd" d="M40.081 19.9191C40.862 20.7001 40.862 21.9665 40.081 22.7475L26.7476 36.0809C26.3726 36.4559 25.8638 36.6666 25.3334 36.6666C24.803 36.6666 24.2943 36.4559 23.9192 36.0809L17.2525 29.4142C16.4715 28.6331 16.4715 27.3668 17.2525 26.5858C18.0336 25.8047 19.2999 25.8047 20.081 26.5858L25.3334 31.8382L37.2525 19.9191C38.0336 19.1381 39.2999 19.1381 40.081 19.9191Z" fill="#EA4710"/>
<path d="M40.081 22.7475L38.6667 21.3333V21.3333L40.081 22.7475ZM40.081 19.9191L38.6667 21.3333L38.6667 21.3333L40.081 19.9191ZM26.7476 36.0809L25.3334 34.6666L25.3334 34.6666L26.7476 36.0809ZM23.9192 36.0809L25.3334 34.6666L25.3334 34.6666L23.9192 36.0809ZM17.2525 29.4142L18.6667 28L18.6667 28L17.2525 29.4142ZM17.2525 26.5858L15.8383 25.1716L15.8383 25.1716L17.2525 26.5858ZM20.081 26.5858L21.4952 25.1716L21.4952 25.1716L20.081 26.5858ZM25.3334 31.8382L23.9192 33.2524L25.3334 34.6666L26.7476 33.2524L25.3334 31.8382ZM37.2525 19.9191L38.6667 21.3333L38.6667 21.3333L37.2525 19.9191ZM41.4952 24.1617C43.0573 22.5996 43.0573 20.067 41.4952 18.5049L38.6667 21.3333V21.3333L41.4952 24.1617ZM28.1618 37.4951L41.4952 24.1617L38.6667 21.3333L25.3334 34.6666L28.1618 37.4951ZM25.3334 38.6666C26.3943 38.6666 27.4117 38.2452 28.1618 37.4951L25.3334 34.6666L25.3334 34.6666V38.6666ZM22.505 37.4951C23.2551 38.2452 24.2725 38.6666 25.3334 38.6666V34.6666L25.3334 34.6666L22.505 37.4951ZM15.8383 30.8284L22.505 37.4951L25.3334 34.6666L18.6667 28L15.8383 30.8284ZM15.8383 25.1716C14.2762 26.7336 14.2762 29.2663 15.8383 30.8284L18.6667 28L18.6667 28L15.8383 25.1716ZM21.4952 25.1716C19.9331 23.6095 17.4004 23.6095 15.8383 25.1716L18.6667 28H18.6667L21.4952 25.1716ZM26.7476 30.424L21.4952 25.1716L18.6667 28L23.9192 33.2524L26.7476 30.424ZM35.8383 18.5049L23.9192 30.424L26.7476 33.2524L38.6667 21.3333L35.8383 18.5049ZM41.4952 18.5049C39.9331 16.9428 37.4004 16.9428 35.8383 18.5049L38.6667 21.3333H38.6667L41.4952 18.5049Z" fill="#2C2C2C" mask="url(#path-2-inside-1_1034_16368)"/>
</svg>
