<svg width="64" height="64" viewBox="0 0 64 64" fill="none" xmlns="http://www.w3.org/2000/svg">
<path d="M1 24C1 11.2975 11.2975 1 24 1H40C52.7025 1 63 11.2975 63 24V40C63 52.7025 52.7025 63 40 63H24C11.2975 63 1 52.7025 1 40V24Z" fill="white"/>
<path d="M1 24C1 11.2975 11.2975 1 24 1H40C52.7025 1 63 11.2975 63 24V40C63 52.7025 52.7025 63 40 63H24C11.2975 63 1 52.7025 1 40V24Z" stroke="#2C2C2C" stroke-width="2"/>
<mask id="path-2-inside-1_1923_4966" fill="white">
<path d="M41.4278 33.523L33.8853 41.0655C32.8439 42.1069 31.1555 42.1069 30.1141 41.0655L22.5716 33.523C19.9681 30.9196 19.9681 26.6985 22.5716 24.095C25.1751 21.4915 29.3962 21.4915 31.9997 24.095C34.6032 21.4915 38.8243 21.4915 41.4278 24.095C44.0313 26.6985 44.0313 30.9196 41.4278 33.523Z"/>
</mask>
<path d="M41.4278 33.523L33.8853 41.0655C32.8439 42.1069 31.1555 42.1069 30.1141 41.0655L22.5716 33.523C19.9681 30.9196 19.9681 26.6985 22.5716 24.095C25.1751 21.4915 29.3962 21.4915 31.9997 24.095C34.6032 21.4915 38.8243 21.4915 41.4278 24.095C44.0313 26.6985 44.0313 30.9196 41.4278 33.523Z" fill="#EA4710"/>
<path d="M22.5716 33.523L23.9859 32.1088L22.5716 33.523ZM31.9997 24.095L30.5855 25.5092L31.9997 26.9234L33.4139 25.5092L31.9997 24.095ZM30.1141 41.0655L28.6999 42.4797L30.1141 41.0655ZM40.0136 32.1088L32.4711 39.6513L35.2996 42.4797L42.842 34.9373L40.0136 32.1088ZM31.5283 39.6513L23.9859 32.1088L21.1574 34.9373L28.6999 42.4797L31.5283 39.6513ZM21.1574 22.6807C17.7729 26.0653 17.7729 31.5527 21.1574 34.9373L23.9859 32.1088C22.1634 30.2864 22.1634 27.3316 23.9859 25.5092L21.1574 22.6807ZM33.4139 22.6807C30.0294 19.2962 24.542 19.2962 21.1574 22.6807L23.9859 25.5092C25.8083 23.6867 28.7631 23.6867 30.5855 25.5092L33.4139 22.6807ZM42.842 22.6807C39.4575 19.2962 33.9701 19.2962 30.5855 22.6807L33.4139 25.5092C35.2364 23.6867 38.1912 23.6867 40.0136 25.5092L42.842 22.6807ZM42.842 34.9373C46.2266 31.5527 46.2266 26.0653 42.842 22.6807L40.0136 25.5092C41.8361 27.3316 41.8361 30.2864 40.0136 32.1088L42.842 34.9373ZM32.4711 39.6513C32.2108 39.9117 31.7887 39.9117 31.5283 39.6513L28.6999 42.4797C30.5223 44.3022 33.4771 44.3022 35.2996 42.4797L32.4711 39.6513Z" fill="#2C2C2C" mask="url(#path-2-inside-1_1923_4966)"/>
</svg>
