<svg width="64" height="64" viewBox="0 0 64 64" fill="none" xmlns="http://www.w3.org/2000/svg">
<path d="M1 24C1 11.2975 11.2975 1 24 1H40C52.7025 1 63 11.2975 63 24V40C63 52.7025 52.7025 63 40 63H24C11.2975 63 1 52.7025 1 40V24Z" fill="#BEFF06"/>
<path d="M1 24C1 11.2975 11.2975 1 24 1H40C52.7025 1 63 11.2975 63 24V40C63 52.7025 52.7025 63 40 63H24C11.2975 63 1 52.7025 1 40V24Z" stroke="#2C2C2C" stroke-width="2"/>
<path d="M41.8088 33.3807L34.2663 40.9232C33.2249 41.9646 31.5365 41.9646 30.4951 40.9232L22.9526 33.3807C20.3491 30.7772 20.3491 26.5561 22.9526 23.9526C25.5561 21.3491 29.7772 21.3491 32.3807 23.9526C34.9842 21.3491 39.2053 21.3491 41.8088 23.9526C44.4123 26.5561 44.4123 30.7772 41.8088 33.3807Z" fill="#EA4710" stroke="#141414" stroke-width="2" stroke-linecap="round" stroke-linejoin="round"/>
</svg>
