<svg width="56" height="56" viewBox="0 0 56 56" fill="none" xmlns="http://www.w3.org/2000/svg">
<path d="M0 20C0 8.95431 8.95431 0 20 0H36C47.0457 0 56 8.95431 56 20V36C56 47.0457 47.0457 56 36 56H20C8.95431 56 0 47.0457 0 36V20Z" fill="#F7F3F3"/>
<path fill-rule="evenodd" clip-rule="evenodd" d="M31 21C31 19.3431 32.3431 18 34 18C35.6569 18 37 19.3431 37 21C37 22.6569 35.6569 24 34 24C33.26 24 32.5832 23.7319 32.0608 23.2889L24.9473 27.4384C24.9819 27.6206 25 27.8084 25 28C25 28.1916 24.9819 28.3794 24.9473 28.5616L32.0608 32.7111C32.5832 32.2681 33.26 32 34 32C35.6569 32 37 33.3431 37 35C37 36.6569 35.6569 38 34 38C32.3431 38 31 36.6569 31 35C31 34.8084 31.0181 34.6206 31.0527 34.4384L23.9392 30.2889C23.4168 30.7319 22.74 31 22 31C20.3431 31 19 29.6569 19 28C19 26.3431 20.3431 25 22 25C22.74 25 23.4168 25.2681 23.9392 25.7111L31.0527 21.5616C31.0181 21.3794 31 21.1916 31 21ZM34 20C33.4477 20 33 20.4477 33 21C33 21.1854 33.0495 21.3562 33.1355 21.5032C33.3105 21.8026 33.6327 22 34 22C34.5523 22 35 21.5523 35 21C35 20.4477 34.5523 20 34 20ZM22 27C21.4477 27 21 27.4477 21 28C21 28.5523 21.4477 29 22 29C22.3673 29 22.6895 28.8026 22.8645 28.5032C22.9505 28.3562 23 28.1854 23 28C23 27.8146 22.9505 27.6438 22.8645 27.4968C22.6895 27.1974 22.3673 27 22 27ZM34 34C33.6327 34 33.3105 34.1974 33.1355 34.4968C33.0495 34.6438 33 34.8146 33 35C33 35.5523 33.4477 36 34 36C34.5523 36 35 35.5523 35 35C35 34.4477 34.5523 34 34 34Z" fill="#2C2C2C"/>
</svg>
