<?xml version="1.0" standalone="no"?><!DOCTYPE svg PUBLIC "-//W3C//DTD SVG 1.1//EN" "http://www.w3.org/Graphics/SVG/1.1/DTD/svg11.dtd"><svg t="1758438800554" class="icon" viewBox="0 0 1024 1024" version="1.1" xmlns="http://www.w3.org/2000/svg" p-id="22965" xmlns:xlink="http://www.w3.org/1999/xlink" width="200" height="200"><path d="M281.002667 170.666667a42.666667 42.666667 0 0 1 30.165333 12.501333L512 384l200.832-200.832a42.666667 42.666667 0 0 1 24.576-12.117333L742.997333 170.666667H810.666667a42.666667 42.666667 0 0 1 42.666666 42.666666v67.669334a42.666667 42.666667 0 0 1-12.501333 30.165333L640 512l200.832 200.832a42.666667 42.666667 0 0 1 12.501333 30.165333V810.666667a42.666667 42.666667 0 0 1-42.666666 42.666666h-67.669334a42.666667 42.666667 0 0 1-30.165333-12.501333L512 640l-200.832 200.832a42.666667 42.666667 0 0 1-24.576 12.117333L281.002667 853.333333H213.333333a42.666667 42.666667 0 0 1-42.666666-42.666666v-67.669334a42.666667 42.666667 0 0 1 12.501333-30.165333L384 512 183.168 311.168A42.666667 42.666667 0 0 1 170.666667 281.002667V213.333333a42.666667 42.666667 0 0 1 42.666666-42.666666h67.669334z" fill="#F96D57" p-id="22966"></path></svg>