<?xml version="1.0" standalone="no"?><!DOCTYPE svg PUBLIC "-//W3C//DTD SVG 1.1//EN" "http://www.w3.org/Graphics/SVG/1.1/DTD/svg11.dtd"><svg t="1758438567233" class="icon" viewBox="0 0 1177 1024" version="1.1" xmlns="http://www.w3.org/2000/svg" p-id="14479" xmlns:xlink="http://www.w3.org/1999/xlink" width="229.8828125" height="200"><path d="M1145.289216 24.576a96.4096 96.4096 0 0 0-98.5088-18.2784L62.665216 378.368A95.4368 95.4368 0 0 0 0.252416 464.384a95.488 95.488 0 0 0 54.1696 91.4944l153.7024 75.1616c3.0208 1.536 5.7856 3.4816 8.192 5.8368 15.9744 41.1648 79.0528 202.3424 107.1104 260.608 14.1824 29.696 40.2944 50.4832 64.512 59.4944-1.6384-0.1536-3.4304-0.512-5.376-0.768 35.4816 13.312 75.4176 4.608 102.0928-22.272l57.2416-57.344c10.24-10.1376 26.0608-12.288 38.7072-5.2736l246.528 140.032a97.024 97.024 0 0 0 86.016 4.864 96.3584 96.3584 0 0 0 55.7568-65.6896l205.9264-830.6176a95.744 95.744 0 0 0-29.5424-95.3856zM204.950016 601.6512L768.150016 307.2l-317.952 297.6256a46.592 46.592 0 0 0-11.52 16.896l-0.3072 0.768c-0.7168 1.8432-63.488 171.3152-100.7104 247.9104a59.136 59.136 0 0 1-22.016-22.1696C288.098816 795.3408 223.894016 645.7344 204.950016 601.7024z" fill="#F26D00" p-id="14480"></path></svg>